<?xml version="1.0" encoding="utf-8"?>
<!-- Svg Vector Icons : http://www.sfont.cn -->
<!DOCTYPE svg PUBLIC "-//W3C//DTD SVG 1.1//EN" "http://www.w3.org/Graphics/SVG/1.1/DTD/svg11.dtd">
<svg version="1.1" xmlns="http://www.w3.org/2000/svg" xmlns:xlink="http://www.w3.org/1999/xlink" x="0px" y="0px" viewBox="0 0 1000 1000" enable-background="new 0 0 1000 1000" xml:space="preserve">
<metadata> Svg Vector Icons : http://www.sfont.cn </metadata>
<g><path d="M321.1,380c7.4,0,13.4,5.5,13.4,12.3c0,6.8-6,12.3-13.4,12.3l0,0V380z"/><path d="M527,517.2c7.5,0,13.6,5.5,13.6,12.2s-6.1,12.3-13.6,12.3V517.2z"/><path d="M460.8,380c7.4,0,13.4,5.5,13.4,12.3c0,6.8-6,12.3-13.4,12.3V380z"/><path d="M500,10C230.5,10,10,230.5,10,500s220.5,490,490,490s490-220.5,490-490S769.5,10,500,10z M419.1,605.3c-22,0-44.1-2.5-63.7-9.8H353l-73.5,36.8l19.6-61.3h-2.5c-49-31.8-78.4-78.4-78.4-134.7c0-93.1,90.7-169.1,200.9-169.1c100.5,0,183.8,61.3,198.5,142.1c-2.4,0-4.9,0-7.3,0c-100.5,0-183.8,68.6-183.8,154.4c0,14.7,2.4,26.9,7.4,39.2C428.9,605.3,424,605.3,419.1,605.3z M715.6,678.8C713.1,678.8,713.1,678.8,715.6,678.8l14.7,51.5L669,698.5h-2.5c-17.1,4.9-34.3,7.3-53.9,7.3c-93.1,0-169.1-63.7-169.1-142.1c0-78.4,76-142.1,169.1-142.1s169,63.7,169,142.1C781.8,612.7,754.8,651.9,715.6,678.8z"/><path d="M647,517.2c7.5,0,13.6,5.5,13.6,12.2s-6.1,12.3-13.6,12.3V517.2z"/></g>
</svg>